<?xml version="1.0" encoding="UTF-8"?>
<svg width="140px" height="50px" viewBox="0 0 140 50" version="1.1" xmlns="http://www.w3.org/2000/svg" xmlns:xlink="http://www.w3.org/1999/xlink">
    <!-- Generator: Sketch 50 (54983) - http://www.bohemiancoding.com/sketch -->
    <title>Group</title>
    <desc>Created with Sketch.</desc>
    <defs></defs>
    <g id="Page-1" stroke="none" stroke-width="1" fill="none" fill-rule="evenodd">
        <g id="6ghadam---home" transform="translate(-1000.000000, -116.000000)">
            <g id="Group" transform="translate(1000.000000, 116.000000)">
                <rect id="Rectangle-3" fill="#FFFFFF" x="0" y="0" width="140" height="50" rx="10"></rect>
                <text id="شش-قدم" font-family="Samim" font-size="20" font-weight="normal" fill="#0279B8">
                    <tspan x="9" y="29">شش قدم</tspan>
                </text>
                <g id="noun_372397_cc" transform="translate(98.000000, 5.000000)" fill="#0279B8" fill-rule="nonzero">
                    <path d="M31.7284324,4.90549451 C31.5593514,4.70989011 27.4633514,0.114285714 16,0.114285714 C4.53664865,0.114285714 0.440648649,4.70989011 0.271567568,4.90549451 C0.133621622,5.06549451 0.0570810811,5.27164835 0.0570810811,5.48483516 L0.0570810811,27.7832967 C0.0570810811,27.9740659 0.118486486,28.1591209 0.230486486,28.3116484 C0.383567568,28.5182418 4.10032432,33.4351648 15.5874595,39.7736264 C15.7163243,39.8443956 15.8581622,39.88 16,39.88 C16.1418378,39.88 16.2836757,39.8443956 16.4125405,39.7736264 C27.8992432,33.4351648 31.6164324,28.5182418 31.7695135,28.3116484 C31.8823784,28.1591209 31.9429189,27.9736264 31.9429189,27.7832967 L31.9429189,5.48527473 C31.9429189,5.27164835 31.8663784,5.06549451 31.7284324,4.90549451 Z M16,37.9995604 C6.52454054,32.7112088 2.61578378,28.4514286 1.78681081,27.4685714 L1.78681081,5.85626374 C2.72735135,5.00307692 6.80475676,1.87252747 16,1.87252747 C25.203027,1.87252747 29.28,5.00835165 30.2131892,5.85582418 L30.2131892,27.4698901 C29.3898378,28.4523077 25.5187027,32.6879121 16,37.9995604 Z M24.956973,4.96 C25.5364324,5.16131868 26.0514595,5.37010989 26.5016216,5.57758242 L26.5011892,14.8967033 C26.1500541,13.8202198 25.6358919,12.7872527 24.9565405,11.8391209 L24.956973,4.96 Z M26.5007568,28.7063736 C26.0562162,29.0989011 25.5385946,29.5340659 24.9561081,30.0013187 L24.9561081,25.0835165 C25.6354595,24.1353846 26.1496216,23.1024176 26.5011892,22.0263736 L26.5007568,28.7063736 Z M20.0151351,33.5450549 C19.5472432,33.8483516 19.0598919,34.1578022 18.5483243,34.4734066 C18.4998919,34.3705495 18.4700541,34.2567033 18.4700541,34.1349451 L18.4700541,29.436044 C18.9976216,29.3147253 19.5135135,29.1538462 20.0147027,28.956044 L20.0147027,33.5450549 L20.0151351,33.5450549 Z M18.4704865,3.7156044 C19.0101622,3.75296703 19.5221622,3.80395604 20.0151351,3.86285714 L20.0151351,7.96615385 C19.5139459,7.76835165 18.9976216,7.60791209 18.4704865,7.48615385 L18.4704865,3.7156044 Z M11.9848649,3.8632967 C12.4782703,3.80395604 12.9894054,3.75296703 13.5286486,3.7156044 L13.5286486,7.48615385 C13.0015135,7.60791209 12.4856216,7.76835165 11.9848649,7.96659341 L11.9848649,3.8632967 Z M13.5286486,29.436044 L13.5286486,34.1353846 C13.5286486,34.2562637 13.4996757,34.3701099 13.4512432,34.4725275 C12.9396757,34.1564835 12.4523243,33.8465934 11.9844324,33.5428571 L11.9844324,28.9556044 C12.4856216,29.1534066 13.0015135,29.3138462 13.5286486,29.436044 Z M7.04302703,29.9934066 C6.46097297,29.5265934 5.94335135,29.090989 5.49837838,28.6984615 L5.49881081,22.0254945 C5.85037838,23.1015385 6.36410811,24.1345055 7.04302703,25.0826374 L7.04302703,29.9934066 Z M5.49881081,14.8967033 L5.49924324,5.57846154 C5.94897297,5.37054945 6.46443243,5.1621978 7.04302703,4.96131868 L7.04302703,11.84 C6.36410811,12.7876923 5.85037838,13.8202198 5.49881081,14.8967033 Z M6.77708108,21.7617582 C8.19243243,25.8474725 11.968,28.4030769 16.0004324,28.4030769 C17.0780541,28.4030769 18.172973,28.2210989 19.2475676,27.8364835 C24.3411892,26.0140659 27.0170811,20.3384615 25.2237838,15.1604396 C23.8088649,11.0747253 20.0332973,8.51956044 16.0008649,8.51956044 C14.9232432,8.51956044 13.8278919,8.70197802 12.7532973,9.08615385 C7.65967568,10.9094505 4.98421622,16.5846154 6.77708108,21.7617582 Z M8.07610811,19.229011 C8.43113514,19.5054945 9.01405405,19.472967 9.36172973,19.1367033 C9.79675676,18.7138462 10.252973,18.2782418 10.7264865,17.8342857 C11.1014054,17.4830769 11.2627027,16.7815385 11.0776216,16.2918681 C10.8445405,15.6734066 10.620973,15.0663736 10.4082162,14.476044 C10.2594595,14.0646154 9.8387027,13.7723077 9.42918919,13.7556044 C10.3325405,12.4479121 11.616,11.3982418 13.1909189,10.8013187 C13.0490811,11.2193407 13.2172973,11.7621978 13.6012973,12.0254945 C14.1349189,12.3903297 14.6854054,12.7714286 15.2467027,13.167033 C15.6704865,13.4672527 16.3818378,13.4698901 16.8108108,13.1749451 C17.3781622,12.7841758 17.9351351,12.4083516 18.4752432,12.0483516 C18.8618378,11.7898901 19.0378378,11.2545055 18.9076757,10.8364835 C20.4172973,11.432967 21.7245405,12.483956 22.6447568,13.8536264 C22.2957838,13.9287912 21.9658378,14.1903297 21.8343784,14.5406593 C21.6147027,15.1287912 21.3855135,15.7327473 21.1455135,16.3481319 C20.9552432,16.8364835 21.1083243,17.5393407 21.4806486,17.8945055 C21.9494054,18.3432967 22.4012973,18.7841758 22.832,19.2123077 C23.1385946,19.5147253 23.6332973,19.5775824 23.9913514,19.3964835 C23.8901622,20.2865934 23.651027,21.1643956 23.2588108,21.9969231 C23.0694054,22.3986813 22.8441081,22.7745055 22.5993514,23.1331868 C22.4514595,22.7147253 22.003027,22.3920879 21.5442162,22.4123077 C20.8994595,22.4413187 20.2313514,22.4641758 19.5485405,22.4808791 C19.0317838,22.4931868 18.4549189,22.9059341 18.2776216,23.3837363 C18.0423784,24.0153846 17.8075676,24.6215385 17.5779459,25.1903297 C17.404973,25.6237363 17.5922162,26.1538462 17.9757838,26.3859341 C17.9775135,26.3872527 17.9796757,26.3881319 17.9814054,26.3894505 C17.3323243,26.5578022 16.6694054,26.6443956 16.0017297,26.6443956 C15.296,26.6443956 14.6075676,26.5450549 13.9468108,26.367033 C13.948973,26.3657143 13.9507027,26.3648352 13.9524324,26.3635165 C14.3377297,26.1345055 14.5284324,25.6065934 14.3584865,25.1705495 C14.1331892,24.5973626 13.9031351,23.9881319 13.6743784,23.3525275 C13.5014054,22.872967 12.9301622,22.4527473 12.416,22.4338462 C11.7362162,22.4079121 11.072,22.3762637 10.432,22.3389011 C9.96410811,22.3116484 9.504,22.6448352 9.36562162,23.0786813 C8.97383784,22.498022 8.64735135,21.8628571 8.40994595,21.1771429 C8.17945946,20.5107692 8.04843243,19.8342857 7.99178378,19.1613187 C8.02032432,19.1846154 8.04627027,19.2061538 8.07610811,19.229011 Z M12.9738378,18.3916484 C12.8116757,17.8676923 13.0339459,17.1767033 13.4694054,16.8531868 C14.0458378,16.4250549 14.6309189,15.9964835 15.2151351,15.5736264 C15.6566486,15.2540659 16.3740541,15.258022 16.8116757,15.581978 C17.3911351,16.010989 17.9723243,16.4457143 18.5457297,16.8804396 C18.9794595,17.2087912 19.1943784,17.9028571 19.0261622,18.4259341 C18.803027,19.1182418 18.5747027,19.8114286 18.3442162,20.4949451 C18.1699459,21.0123077 17.5887568,21.4312088 17.0508108,21.4312088 C16.339027,21.4316484 15.6224865,21.4272527 14.912,21.4175824 C14.3740541,21.4101099 13.7989189,20.9841758 13.6302703,20.4654945 C13.4075676,19.7793407 13.1874595,19.0848352 12.9738378,18.3916484 Z" id="Shape"></path>
                </g>
            </g>
        </g>
    </g>
</svg>